ffmpeg started on 2025-05-12 at 16:32:19
Report written to "D:\Convert\FFMetrics\reports\ssim_report-6.txt"
Log level: 32
Command line:
ffmpeg -hide_banner -nostdin -i "G:\\\xc0\xed\xe8\xec\xe5\\\xce\xed\xe3\xee\xe8\xed\xe3\xe8\\!_35_\xcb\xe5\xf2\xee_2024\\DreamCast\\\xcc\xee\xff \xef\xee\xe4\xf0\xf3\xe3\xe0-\xee\xeb\xe5\xed\xe8\xf5\xe0, \xcd\xee\xea\xee\xf2\xe0\xed\\[DC] Shikanoko Nokonoko Koshitantan - 04_Telegram_HEVC.mkv" -i "G:\\\xc0\xed\xe8\xec\xe5\\\xce\xed\xe3\xee\xe8\xed\xe3\xe8\\!_35_\xcb\xe5\xf2\xee_2024\\DreamCast\\\xcc\xee\xff \xef\xee\xe4\xf0\xf3\xe3\xe0-\xee\xeb\xe5\xed\xe8\xf5\xe0, \xcd\xee\xea\xee\xf2\xe0\xed\\[DC] Shikanoko Nokonoko Koshitantan - 04_Telegram.mp4" -lavfi "[0:v]settb=AVTB,setpts=PTS-STARTPTS,format=pix_fmts=yuv420p10,fps=24000/1001,scale=1920:1080:flags=bicubic[main];[1:v]settb=AVTB,setpts=PTS-STARTPTS,format=pix_fmts=yuv420p,fps=24000/1001,scale=1920:1080:flags=bicubic[ref];[main][ref]ssim=eof_action=endall:stats_file='D\\:/Convert/FFMetrics/logs/ssim_logfile-6.txt'" -f null -
Input #0, matroska,webm, from 'G:\Аниме\Онгоинги\!_35_Лето_2024\DreamCast\Моя подруга-олениха, Нокотан\[DC] Shikanoko Nokonoko Koshitantan - 04_Telegram_HEVC.mkv':
  Metadata:
    COMPATIBLE_BRANDS: isomiso2avc1mp41
    MAJOR_BRAND     : isom
    MINOR_VERSION   : 512
    ENCODER         : Lavf61.7.100
  Duration: 00:23:41.70, start: -0.021000, bitrate: 1595 kb/s
  Stream #0:0: Video: hevc (Main 10), yuv420p10le(tv, bt709, progressive), 1920x1080 [SAR 1:1 DAR 16:9], 23.98 fps, 23.98 tbr, 1k tbn (default)
      Metadata:
        HANDLER_NAME    : VideoHandler
        VENDOR_ID       : [0][0][0][0]
        ENCODER         : Lavc61.19.100 libx265
        BPS             : 1397887
        DURATION        : 00:23:41.628708333
        NUMBER_OF_FRAMES: 34085
        NUMBER_OF_BYTES : 248409435
        _STATISTICS_WRITING_APP: mkvpropedit v66.0.0 ('Josie') 64-bit
        _STATISTICS_WRITING_DATE_UTC: 2025-05-08 10:26:04
        _STATISTICS_TAGS: BPS DURATION NUMBER_OF_FRAMES NUMBER_OF_BYTES
  Stream #0:1: Audio: aac (LC), 48000 Hz, stereo, fltp (default)
      Metadata:
        HANDLER_NAME    : SoundHandler
        VENDOR_ID       : [0][0][0][0]
        ENCODER         : Lavc61.19.100 aac
        BPS             : 193446
        DURATION        : 00:23:41.696000000
        NUMBER_OF_FRAMES: 66643
        NUMBER_OF_BYTES : 34377834
        _STATISTICS_WRITING_APP: mkvpropedit v66.0.0 ('Josie') 64-bit
        _STATISTICS_WRITING_DATE_UTC: 2025-05-08 10:26:04
        _STATISTICS_TAGS: BPS DURATION NUMBER_OF_FRAMES NUMBER_OF_BYTES
Input #1, mov,mp4,m4a,3gp,3g2,mj2, from 'G:\Аниме\Онгоинги\!_35_Лето_2024\DreamCast\Моя подруга-олениха, Нокотан\[DC] Shikanoko Nokonoko Koshitantan - 04_Telegram.mp4':
  Metadata:
    major_brand     : isom
    minor_version   : 512
    compatible_brands: isomiso2avc1mp41
    encoder         : Lavf61.1.100
  Duration: 00:23:41.67, start: 0.000000, bitrate: 3572 kb/s
  Stream #1:0[0x1](und): Video: h264 (High) (avc1 / 0x31637661), yuv420p(tv, bt709, progressive), 1920x1080 [SAR 1:1 DAR 16:9], 3425 kb/s, 23.98 fps, 23.98 tbr, 24k tbn (default)
      Metadata:
        handler_name    : VideoHandler
        vendor_id       : [0][0][0][0]
        encoder         : Lavc61.3.100 h264_qsv
  Stream #1:1[0x2](und): Audio: aac (HE-AACv2) (mp4a / 0x6134706D), 48000 Hz, stereo, fltp, 144 kb/s (default)
      Metadata:
        handler_name    : SoundHandler
        vendor_id       : [0][0][0][0]
Stream mapping:
  Stream #0:0 (hevc) -> settb:default
  Stream #1:0 (h264) -> settb:default
  ssim:default -> Stream #0:0 (wrapped_avframe)
  Stream #0:1 -> #0:1 (aac (native) -> pcm_s16le (native))
Output #0, null, to 'pipe:':
  Metadata:
    COMPATIBLE_BRANDS: isomiso2avc1mp41
    MAJOR_BRAND     : isom
    MINOR_VERSION   : 512
    encoder         : Lavf61.7.100
  Stream #0:0: Video: wrapped_avframe, yuv420p10le(tv, bt709, progressive), 1920x1080 [SAR 1:1 DAR 16:9], q=2-31, 200 kb/s, 23.98 fps, 23.98 tbn
      Metadata:
        encoder         : Lavc61.19.100 wrapped_avframe
  Stream #0:1: Audio: pcm_s16le, 48000 Hz, stereo, s16, 1536 kb/s (default)
      Metadata:
        HANDLER_NAME    : SoundHandler
        VENDOR_ID       : [0][0][0][0]
        _STATISTICS_TAGS: BPS DURATION NUMBER_OF_FRAMES NUMBER_OF_BYTES
        BPS             : 193446
        DURATION        : 00:23:41.696000000
        NUMBER_OF_FRAMES: 66643
        NUMBER_OF_BYTES : 34377834
        _STATISTICS_WRITING_APP: mkvpropedit v66.0.0 ('Josie') 64-bit
        _STATISTICS_WRITING_DATE_UTC: 2025-05-08 10:26:04
        encoder         : Lavc61.19.100 pcm_s16le
frame=  178 fps=0.0 q=-0.0 size=N/A time=00:00:07.42 bitrate=N/A speed=14.5x    frame=  444 fps=435 q=-0.0 size=N/A time=00:00:18.51 bitrate=N/A speed=18.1x    frame=  692 fps=448 q=-0.0 size=N/A time=00:00:28.86 bitrate=N/A speed=18.7x    frame=  938 fps=458 q=-0.0 size=N/A time=00:00:39.12 bitrate=N/A speed=19.1x    frame= 1173 fps=456 q=-0.0 size=N/A time=00:00:48.92 bitrate=N/A speed=  19x    frame= 1400 fps=454 q=-0.0 size=N/A time=00:00:58.39 bitrate=N/A speed=  19x    frame= 1585 fps=440 q=-0.0 size=N/A time=00:01:06.10 bitrate=N/A speed=18.3x    frame= 1753 fps=426 q=-0.0 size=N/A time=00:01:13.11 bitrate=N/A speed=17.8x    frame= 1961 fps=423 q=-0.0 size=N/A time=00:01:21.79 bitrate=N/A speed=17.6x    frame= 2174 fps=422 q=-0.0 size=N/A time=00:01:30.67 bitrate=N/A speed=17.6x    frame= 2402 fps=423 q=-0.0 size=N/A time=00:01:40.18 bitrate=N/A speed=17.7x    frame= 2614 fps=422 q=-0.0 size=N/A time=00:01:49.02 bitrate=N/A speed=17.6x    frame= 2829 fps=422 q=-0.0 size=N/A time=00:01:57.99 bitrate=N/A speed=17.6x    frame= 3009 fps=416 q=-0.0 size=N/A time=00:02:05.50 bitrate=N/A speed=17.3x    frame= 3231 fps=418 q=-0.0 size=N/A time=00:02:14.75 bitrate=N/A speed=17.4x    frame= 3419 fps=414 q=-0.0 size=N/A time=00:02:22.60 bitrate=N/A speed=17.3x    frame= 3651 fps=416 q=-0.0 size=N/A time=00:02:32.27 bitrate=N/A speed=17.4x    frame= 3930 fps=423 q=-0.0 size=N/A time=00:02:43.91 bitrate=N/A speed=17.6x    frame= 4169 fps=425 q=-0.0 size=N/A time=00:02:53.88 bitrate=N/A speed=17.7x    frame= 4363 fps=423 q=-0.0 size=N/A time=00:03:01.97 bitrate=N/A speed=17.6x    frame= 4594 fps=424 q=-0.0 size=N/A time=00:03:11.60 bitrate=N/A speed=17.7x    frame= 4787 fps=422 q=-0.0 size=N/A time=00:03:19.65 bitrate=N/A speed=17.6x    frame= 4980 fps=419 q=-0.0 size=N/A time=00:03:27.70 bitrate=N/A speed=17.5x    frame= 5182 fps=418 q=-0.0 size=N/A time=00:03:36.13 bitrate=N/A speed=17.4x    frame= 5443 fps=422 q=-0.0 size=N/A time=00:03:47.01 bitrate=N/A speed=17.6x    frame= 5690 fps=424 q=-0.0 size=N/A time=00:03:57.32 bitrate=N/A speed=17.7x    frame= 5954 fps=427 q=-0.0 size=N/A time=00:04:08.33 bitrate=N/A speed=17.8x    frame= 6190 fps=429 q=-0.0 size=N/A time=00:04:18.17 bitrate=N/A speed=17.9x    frame= 6438 fps=430 q=-0.0 size=N/A time=00:04:28.51 bitrate=N/A speed=17.9x    frame= 6677 fps=432 q=-0.0 size=N/A time=00:04:38.48 bitrate=N/A speed=  18x    frame= 6917 fps=432 q=-0.0 size=N/A time=00:04:48.49 bitrate=N/A speed=  18x    frame= 7106 fps=431 q=-0.0 size=N/A time=00:04:56.37 bitrate=N/A speed=  18x    frame= 7312 fps=429 q=-0.0 size=N/A time=00:05:04.97 bitrate=N/A speed=17.9x    frame= 7503 fps=428 q=-0.0 size=N/A time=00:05:12.93 bitrate=N/A speed=17.8x    frame= 7708 fps=427 q=-0.0 size=N/A time=00:05:21.48 bitrate=N/A speed=17.8x    frame= 7905 fps=426 q=-0.0 size=N/A time=00:05:29.70 bitrate=N/A speed=17.7x    frame= 8092 fps=424 q=-0.0 size=N/A time=00:05:37.50 bitrate=N/A speed=17.7x    frame= 8326 fps=425 q=-0.0 size=N/A time=00:05:47.26 bitrate=N/A speed=17.7x    frame= 8582 fps=427 q=-0.0 size=N/A time=00:05:57.94 bitrate=N/A speed=17.8x    frame= 8834 fps=428 q=-0.0 size=N/A time=00:06:08.45 bitrate=N/A speed=17.9x    frame= 9094 fps=430 q=-0.0 size=N/A time=00:06:19.29 bitrate=N/A speed=17.9x    frame= 9370 fps=432 q=-0.0 size=N/A time=00:06:30.80 bitrate=N/A speed=  18x    frame= 9621 fps=434 q=-0.0 size=N/A time=00:06:41.27 bitrate=N/A speed=18.1x    frame= 9873 fps=435 q=-0.0 size=N/A time=00:06:51.78 bitrate=N/A speed=18.1x    frame=10082 fps=434 q=-0.0 size=N/A time=00:07:00.50 bitrate=N/A speed=18.1x    frame=10332 fps=435 q=-0.0 size=N/A time=00:07:10.93 bitrate=N/A speed=18.2x    frame=10608 fps=438 q=-0.0 size=N/A time=00:07:22.44 bitrate=N/A speed=18.3x    frame=10871 fps=439 q=-0.0 size=N/A time=00:07:33.41 bitrate=N/A speed=18.3x    frame=11089 fps=439 q=-0.0 size=N/A time=00:07:42.50 bitrate=N/A speed=18.3x    frame=11283 fps=438 q=-0.0 size=N/A time=00:07:50.59 bitrate=N/A speed=18.2x    frame=11536 fps=438 q=-0.0 size=N/A time=00:08:01.14 bitrate=N/A speed=18.3x    frame=11807 fps=440 q=-0.0 size=N/A time=00:08:12.45 bitrate=N/A speed=18.4x    frame=12059 fps=441 q=-0.0 size=N/A time=00:08:22.96 bitrate=N/A speed=18.4x    frame=12315 fps=442 q=-0.0 size=N/A time=00:08:33.63 bitrate=N/A speed=18.4x    frame=12566 fps=443 q=-0.0 size=N/A time=00:08:44.10 bitrate=N/A speed=18.5x    frame=12830 fps=444 q=-0.0 size=N/A time=00:08:55.11 bitrate=N/A speed=18.5x    frame=13084 fps=445 q=-0.0 size=N/A time=00:09:05.71 bitrate=N/A speed=18.6x    frame=13357 fps=447 q=-0.0 size=N/A time=00:09:17.09 bitrate=N/A speed=18.6x    frame=13617 fps=447 q=-0.0 size=N/A time=00:09:27.94 bitrate=N/A speed=18.7x    frame=13852 fps=448 q=-0.0 size=N/A time=00:09:37.74 bitrate=N/A speed=18.7x    frame=14109 fps=448 q=-0.0 size=N/A time=00:09:48.46 bitrate=N/A speed=18.7x    frame=14347 fps=449 q=-0.0 size=N/A time=00:09:58.38 bitrate=N/A speed=18.7x    frame=14501 fps=446 q=-0.0 size=N/A time=00:10:04.81 bitrate=N/A speed=18.6x    frame=14717 fps=446 q=-0.0 size=N/A time=00:10:13.82 bitrate=N/A speed=18.6x    frame=14978 fps=447 q=-0.0 size=N/A time=00:10:24.70 bitrate=N/A speed=18.6x    frame=15240 fps=448 q=-0.0 size=N/A time=00:10:35.63 bitrate=N/A speed=18.7x    frame=15503 fps=449 q=-0.0 size=N/A time=00:10:46.60 bitrate=N/A speed=18.7x    frame=15769 fps=450 q=-0.0 size=N/A time=00:10:57.69 bitrate=N/A speed=18.8x    frame=16034 fps=450 q=-0.0 size=N/A time=00:11:08.75 bitrate=N/A speed=18.8x    frame=16254 fps=450 q=-0.0 size=N/A time=00:11:17.92 bitrate=N/A speed=18.8x    frame=16492 fps=450 q=-0.0 size=N/A time=00:11:27.85 bitrate=N/A speed=18.8x    frame=16753 fps=451 q=-0.0 size=N/A time=00:11:38.73 bitrate=N/A speed=18.8x    frame=16976 fps=451 q=-0.0 size=N/A time=00:11:48.04 bitrate=N/A speed=18.8x    frame=17244 fps=452 q=-0.0 size=N/A time=00:11:59.21 bitrate=N/A speed=18.8x    frame=17472 fps=452 q=-0.0 size=N/A time=00:12:08.72 bitrate=N/A speed=18.8x    frame=17717 fps=452 q=-0.0 size=N/A time=00:12:18.94 bitrate=N/A speed=18.9x    frame=17946 fps=452 q=-0.0 size=N/A time=00:12:28.49 bitrate=N/A speed=18.8x    frame=18159 fps=451 q=-0.0 size=N/A time=00:12:37.38 bitrate=N/A speed=18.8x    frame=18383 fps=451 q=-0.0 size=N/A time=00:12:46.72 bitrate=N/A speed=18.8x    frame=18616 fps=451 q=-0.0 size=N/A time=00:12:56.44 bitrate=N/A speed=18.8x    frame=18850 fps=451 q=-0.0 size=N/A time=00:13:06.20 bitrate=N/A speed=18.8x    frame=19092 fps=452 q=-0.0 size=N/A time=00:13:16.29 bitrate=N/A speed=18.8x    frame=19303 fps=451 q=-0.0 size=N/A time=00:13:25.09 bitrate=N/A speed=18.8x    frame=19488 fps=450 q=-0.0 size=N/A time=00:13:32.81 bitrate=N/A speed=18.8x    frame=19673 fps=449 q=-0.0 size=N/A time=00:13:40.52 bitrate=N/A speed=18.7x    frame=19898 fps=449 q=-0.0 size=N/A time=00:13:49.91 bitrate=N/A speed=18.7x    frame=20158 fps=449 q=-0.0 size=N/A time=00:14:00.75 bitrate=N/A speed=18.7x    frame=20409 fps=450 q=-0.0 size=N/A time=00:14:11.22 bitrate=N/A speed=18.8x    frame=20672 fps=450 q=-0.0 size=N/A time=00:14:22.19 bitrate=N/A speed=18.8x    frame=20922 fps=451 q=-0.0 size=N/A time=00:14:32.62 bitrate=N/A speed=18.8x    frame=21143 fps=450 q=-0.0 size=N/A time=00:14:41.83 bitrate=N/A speed=18.8x    frame=21327 fps=449 q=-0.0 size=N/A time=00:14:49.51 bitrate=N/A speed=18.7x    frame=21583 fps=450 q=-0.0 size=N/A time=00:15:00.19 bitrate=N/A speed=18.8x    frame=21845 fps=450 q=-0.0 size=N/A time=00:15:11.11 bitrate=N/A speed=18.8x    frame=22036 fps=450 q=-0.0 size=N/A time=00:15:19.08 bitrate=N/A speed=18.8x    frame=22245 fps=449 q=-0.0 size=N/A time=00:15:27.80 bitrate=N/A speed=18.7x    frame=22478 fps=449 q=-0.0 size=N/A time=00:15:37.51 bitrate=N/A speed=18.7x    frame=22727 fps=450 q=-0.0 size=N/A time=00:15:47.90 bitrate=N/A speed=18.7x    frame=22998 fps=450 q=-0.0 size=N/A time=00:15:59.20 bitrate=N/A speed=18.8x    frame=23250 fps=451 q=-0.0 size=N/A time=00:16:09.71 bitrate=N/A speed=18.8x    frame=23475 fps=451 q=-0.0 size=N/A time=00:16:19.10 bitrate=N/A speed=18.8x    frame=23729 fps=451 q=-0.0 size=N/A time=00:16:29.69 bitrate=N/A speed=18.8x    frame=23964 fps=451 q=-0.0 size=N/A time=00:16:39.49 bitrate=N/A speed=18.8x    frame=24204 fps=451 q=-0.0 size=N/A time=00:16:49.50 bitrate=N/A speed=18.8x    frame=24456 fps=451 q=-0.0 size=N/A time=00:17:00.01 bitrate=N/A speed=18.8x    frame=24728 fps=452 q=-0.0 size=N/A time=00:17:11.36 bitrate=N/A speed=18.9x    frame=24966 fps=452 q=-0.0 size=N/A time=00:17:21.29 bitrate=N/A speed=18.9x    frame=25182 fps=452 q=-0.0 size=N/A time=00:17:30.29 bitrate=N/A speed=18.8x    frame=25461 fps=453 q=-0.0 size=N/A time=00:17:41.93 bitrate=N/A speed=18.9x    frame=25729 fps=453 q=-0.0 size=N/A time=00:17:53.11 bitrate=N/A speed=18.9x    frame=25983 fps=454 q=-0.0 size=N/A time=00:18:03.70 bitrate=N/A speed=18.9x    frame=26213 fps=454 q=-0.0 size=N/A time=00:18:13.30 bitrate=N/A speed=18.9x    frame=26428 fps=453 q=-0.0 size=N/A time=00:18:22.26 bitrate=N/A speed=18.9x    frame=26654 fps=453 q=-0.0 size=N/A time=00:18:31.69 bitrate=N/A speed=18.9x    frame=26860 fps=453 q=-0.0 size=N/A time=00:18:40.28 bitrate=N/A speed=18.9x    frame=27056 fps=452 q=-0.0 size=N/A time=00:18:48.46 bitrate=N/A speed=18.9x    frame=27283 fps=452 q=-0.0 size=N/A time=00:18:57.92 bitrate=N/A speed=18.8x    frame=27517 fps=452 q=-0.0 size=N/A time=00:19:07.68 bitrate=N/A speed=18.9x    frame=27689 fps=451 q=-0.0 size=N/A time=00:19:14.86 bitrate=N/A speed=18.8x    frame=27899 fps=451 q=-0.0 size=N/A time=00:19:23.62 bitrate=N/A speed=18.8x    frame=28171 fps=451 q=-0.0 size=N/A time=00:19:34.96 bitrate=N/A speed=18.8x    frame=28434 fps=452 q=-0.0 size=N/A time=00:19:45.93 bitrate=N/A speed=18.8x    frame=28698 fps=452 q=-0.0 size=N/A time=00:19:56.94 bitrate=N/A speed=18.9x    frame=28961 fps=453 q=-0.0 size=N/A time=00:20:07.91 bitrate=N/A speed=18.9x    frame=29205 fps=453 q=-0.0 size=N/A time=00:20:18.09 bitrate=N/A speed=18.9x    frame=29448 fps=453 q=-0.0 size=N/A time=00:20:28.22 bitrate=N/A speed=18.9x    frame=29673 fps=453 q=-0.0 size=N/A time=00:20:37.61 bitrate=N/A speed=18.9x    frame=29926 fps=453 q=-0.0 size=N/A time=00:20:48.16 bitrate=N/A speed=18.9x    frame=30154 fps=453 q=-0.0 size=N/A time=00:20:57.67 bitrate=N/A speed=18.9x    frame=30417 fps=453 q=-0.0 size=N/A time=00:21:08.64 bitrate=N/A speed=18.9x    frame=30698 fps=454 q=-0.0 size=N/A time=00:21:20.36 bitrate=N/A speed=18.9x    frame=30939 fps=454 q=-0.0 size=N/A time=00:21:30.41 bitrate=N/A speed=18.9x    frame=31150 fps=454 q=-0.0 size=N/A time=00:21:39.21 bitrate=N/A speed=18.9x    frame=31352 fps=453 q=-0.0 size=N/A time=00:21:47.63 bitrate=N/A speed=18.9x    frame=31573 fps=453 q=-0.0 size=N/A time=00:21:56.85 bitrate=N/A speed=18.9x    frame=31807 fps=453 q=-0.0 size=N/A time=00:22:06.61 bitrate=N/A speed=18.9x    frame=32015 fps=453 q=-0.0 size=N/A time=00:22:15.29 bitrate=N/A speed=18.9x    frame=32171 fps=452 q=-0.0 size=N/A time=00:22:21.79 bitrate=N/A speed=18.8x    frame=32366 fps=451 q=-0.0 size=N/A time=00:22:29.93 bitrate=N/A speed=18.8x    frame=32539 fps=450 q=-0.0 size=N/A time=00:22:37.14 bitrate=N/A speed=18.8x    frame=32700 fps=449 q=-0.0 size=N/A time=00:22:43.86 bitrate=N/A speed=18.7x    frame=32870 fps=448 q=-0.0 size=N/A time=00:22:50.95 bitrate=N/A speed=18.7x    frame=33039 fps=448 q=-0.0 size=N/A time=00:22:58.00 bitrate=N/A speed=18.7x    frame=33205 fps=447 q=-0.0 size=N/A time=00:23:04.92 bitrate=N/A speed=18.6x    frame=33369 fps=446 q=-0.0 size=N/A time=00:23:11.76 bitrate=N/A speed=18.6x    frame=33526 fps=445 q=-0.0 size=N/A time=00:23:18.31 bitrate=N/A speed=18.6x    frame=33687 fps=444 q=-0.0 size=N/A time=00:23:25.02 bitrate=N/A speed=18.5x    frame=33841 fps=443 q=-0.0 size=N/A time=00:23:31.45 bitrate=N/A speed=18.5x    frame=34013 fps=442 q=-0.0 size=N/A time=00:23:38.62 bitrate=N/A speed=18.4x    [Parsed_ssim_10 @ 0000016d53d90140] SSIM Y:0.994822 (22.858398) U:0.993426 (21.821379) V:0.993169 (21.654926) All:0.994314 (22.451707)
[out#0/null @ 0000016d470667c0] video:14646KiB audio:266572KiB subtitle:0KiB other streams:0KiB global headers:0KiB muxing overhead: unknown
frame=34085 fps=442 q=-0.0 Lsize=N/A time=00:23:41.62 bitrate=N/A speed=18.4x    
